<?xml version="1.0" encoding="UTF-8"?>
<svg version="1.1" xmlns="http://www.w3.org/2000/svg" width="1035" height="241">
<path d="M0 0 C0.78831418 -0.00085442 1.57662835 -0.00170885 2.38883084 -0.00258917 C5.0266744 -0.00423447 7.66445418 0.00126187 10.30229187 0.00672913 C12.19463093 0.00701123 14.08697009 0.00685281 15.97930908 0.00628662 C21.11522242 0.00599955 26.25111243 0.0118818 31.38702035 0.01886058 C36.75486906 0.02510904 42.12271829 0.0256991 47.49057007 0.02688599 C57.65479133 0.02999489 67.81900184 0.03820236 77.98321837 0.04823548 C89.5550595 0.05941027 101.12690114 0.06491051 112.69874632 0.06993091 C136.50239181 0.08038532 160.30602776 0.09797626 184.10966492 0.12025452 C184.13267975 1.87084334 184.14905064 3.6215203 184.16264343 5.37220764 C184.17247757 6.34710144 184.18231171 7.32199524 184.19244385 8.32643127 C183.82885443 20.59772481 176.52075599 32.64172562 168.35966492 41.37025452 C153.47909111 55.28344876 137.32363647 57.86643753 117.85185242 57.72181702 C115.93144333 57.72733352 114.01104019 57.73547273 112.09065247 57.74607849 C107.07495998 57.76877745 102.05970651 57.76481787 97.04399109 57.75227356 C89.01289171 57.73384773 80.98204723 57.74420054 72.95100784 57.77813339 C70.17205399 57.78416466 67.39367023 57.77107474 64.61476135 57.75614929 C45.7202491 57.74489632 29.14762687 61.44786449 15.10966492 75.12025452 C5.42634956 86.48680243 2.18633554 98.71862817 0.10966492 113.12025452 C-13.8301812 113.93668802 -26.86138753 109.43606573 -37.59785461 100.43031311 C-46.41304977 92.58621258 -53.14659216 82.73014193 -55.89033508 71.12025452 C-56.1629718 70.02390686 -56.1629718 70.02390686 -56.44111633 68.90541077 C-59.10499879 52.38933956 -55.9386004 37.16980711 -46.89033508 23.12025452 C-35.9538313 8.01848074 -18.44891301 -0.07336371 0 0 Z " fill="#D1495B" transform="translate(85.89033508300781,26.879745483398438)"/>
<path d="M0 0 C14.86196469 -0.85742104 27.98623755 5.45725084 39.453125 14.484375 C39.96359375 14.98453125 40.4740625 15.4846875 41 16 C41 16.66 41 17.32 41 18 C42.485 18.495 42.485 18.495 44 19 C55.4839355 33.50459152 58.30918365 49.07096184 57 67 C54.34146065 81.97897028 45.32618145 94.75536392 33.25 103.8125 C24.69272248 109.47717667 14.77163342 113.13763849 4.4753418 113.11352539 C2.83172668 113.11334412 2.83172668 113.11334412 1.15490723 113.11315918 C0.01453003 113.10804321 -1.12584717 113.10292725 -2.30078125 113.09765625 C-3.35728882 113.09664917 -4.41379639 113.09564209 -5.50231934 113.09460449 C-9.43905731 113.08938279 -13.37577977 113.07542153 -17.3125 113.0625 C-26.119375 113.041875 -34.92625 113.02125 -44 113 C-44 93.86 -44 74.72 -44 55 C-39.05 53.02 -34.1 51.04 -29 49 C-14.41261406 39.57897991 -5.8731133 28.4214744 -1.74609375 11.51953125 C-0.9290919 7.66550683 -0.32034012 3.92416643 0 0 Z " fill="#ECAD49" transform="translate(213,86)"/>
<path d="M0 0 C1.01316284 0.00201416 2.02632568 0.00402832 3.07019043 0.00610352 C6.81637163 0.01648347 10.56248775 0.04440534 14.30859375 0.0703125 C22.70296875 0.1115625 31.09734375 0.1528125 39.74609375 0.1953125 C39.74609375 19.0053125 39.74609375 37.8153125 39.74609375 57.1953125 C36.33803441 57.87692437 33.88363075 58.32048408 30.54498291 58.32229614 C29.74021011 58.32511597 28.93543732 58.32793579 28.10627747 58.33084106 C27.23750473 58.32881683 26.36873199 58.3267926 25.47363281 58.32470703 C24.54791977 58.32645935 23.62220673 58.32821167 22.66844177 58.33001709 C19.61618157 58.3344099 16.56397952 58.33150762 13.51171875 58.328125 C11.39133696 58.32879855 9.27095525 58.329769 7.15057373 58.33102417 C2.7121914 58.33249746 -1.72617079 58.33035754 -6.16455078 58.32568359 C-11.86686674 58.31997261 -17.56913578 58.32327629 -23.27145004 58.32925606 C-27.64644732 58.33285975 -32.02143336 58.33172422 -36.39643097 58.32912827 C-38.50008398 58.32845918 -40.603738 58.32928677 -42.70738983 58.33160782 C-45.63796213 58.33413269 -48.56845695 58.33029674 -51.49902344 58.32470703 C-52.81432793 58.32774338 -52.81432793 58.32774338 -54.15620422 58.33084106 C-60.13964092 58.30957783 -60.13964092 58.30957783 -61.25390625 57.1953125 C-62.95086839 44.1759964 -57.06333521 31.00799283 -49.44140625 20.7578125 C-36.66046645 5.50314241 -19.33055651 -0.18369417 0 0 Z " fill="#ECAD49" transform="translate(90.25390625,141.8046875)"/>
<path d="M0 0 C0.9237442 0.0028299 1.8474884 0.00565979 2.79922485 0.00857544 C5.73347226 0.01972071 8.6674082 0.04481485 11.6015625 0.0703125 C13.59765182 0.08034961 15.59374596 0.08947418 17.58984375 0.09765625 C22.46886899 0.11964153 27.34766304 0.15413233 32.2265625 0.1953125 C32.30138059 6.09941925 32.35547706 12.00324282 32.39135742 17.90771484 C32.40633392 19.91134455 32.42672231 21.91494211 32.45288086 23.91845703 C32.65859187 40.09298932 32.50839727 55.25589104 21.1015625 67.9453125 C13.78547865 74.66608331 5.88019132 76.89372365 -3.91503906 76.72119141 C-13.23053995 76.24581966 -18.22469513 73.74405487 -24.7734375 67.1953125 C-25.1034375 81.3853125 -25.4334375 95.5753125 -25.7734375 110.1953125 C-32.3734375 110.1953125 -38.9734375 110.1953125 -45.7734375 110.1953125 C-45.7734375 74.2253125 -45.7734375 38.2553125 -45.7734375 1.1953125 C-39.1734375 1.1953125 -32.5734375 1.1953125 -25.7734375 1.1953125 C-25.4434375 3.5053125 -25.1134375 5.8153125 -24.7734375 8.1953125 C-24.19335938 7.78539063 -23.61328125 7.37546875 -23.015625 6.953125 C-22.23445312 6.41429688 -21.45328125 5.87546875 -20.6484375 5.3203125 C-19.88273438 4.78664063 -19.11703125 4.25296875 -18.328125 3.703125 C-12.27993559 0.13339853 -6.82824252 -0.07939907 0 0 Z M-21.6484375 24.1328125 C-26.14118805 30.60765887 -26.57640712 36.46672995 -25.7734375 44.1953125 C-23.7921014 51.06244331 -19.57327416 55.09540276 -13.3984375 58.5078125 C-8.40367417 59.8159648 -4.36170657 59.78702058 0.4140625 58.0078125 C6.28607266 54.22362817 10.11940761 49.72930789 11.79858398 42.8527832 C12.24572859 40.07630341 12.33992319 37.48687522 12.32421875 34.67578125 C12.32099609 33.65419922 12.31777344 32.63261719 12.31445312 31.58007812 C12.30607422 30.52498047 12.29769531 29.46988281 12.2890625 28.3828125 C12.28455078 27.30837891 12.28003906 26.23394531 12.27539062 25.12695312 C12.26363979 22.48301567 12.24721037 19.83919298 12.2265625 17.1953125 C8.56017002 17.07803124 4.8942673 17.00770359 1.2265625 16.9453125 C0.19660156 16.91179687 -0.83335937 16.87828125 -1.89453125 16.84375 C-9.92107697 16.74150101 -16.15328756 17.95398438 -21.6484375 24.1328125 Z " fill="#414141" transform="translate(538.7734375,84.8046875)"/>
<path d="M0 0 C5.76160642 -0.14968202 11.52205146 -0.25783804 17.28515625 -0.32958984 C19.24043523 -0.3595373 21.19558251 -0.40031105 23.15039062 -0.45263672 C44.36449793 -1.00576528 44.36449793 -1.00576528 54 6 C54.66 6.66 55.32 7.32 56 8 C56.33 5.69 56.66 3.38 57 1 C63.6 1 70.2 1 77 1 C77 25.42 77 49.84 77 75 C70.4 75 63.8 75 57 75 C56.505 71.535 56.505 71.535 56 68 C55.40832031 68.40992188 54.81664062 68.81984375 54.20703125 69.2421875 C53.41683594 69.78101563 52.62664063 70.31984375 51.8125 70.875 C51.03519531 71.40867187 50.25789062 71.94234375 49.45703125 72.4921875 C41.9683901 77.08776061 33.53868228 77.11451033 25 76 C15.5094258 73.21426226 8.40826925 67.20046651 3.66015625 58.5625 C1.28006912 53.41270294 -0.12852503 48.83951186 -0.11352539 43.13964844 C-0.11344986 42.17895447 -0.11337433 41.2182605 -0.11329651 40.22845459 C-0.10813522 39.19915833 -0.10297394 38.16986206 -0.09765625 37.109375 C-0.0962413 36.04962463 -0.09482635 34.98987427 -0.09336853 33.89801025 C-0.08777382 30.51531138 -0.07522225 27.13267885 -0.0625 23.75 C-0.05748432 21.45573012 -0.05292153 19.16145921 -0.04882812 16.8671875 C-0.03780611 11.24476906 -0.02107321 5.62238927 0 0 Z M19 17 C18.94130668 20.49992803 18.90617291 23.9997272 18.875 27.5 C18.85824219 28.48226562 18.84148438 29.46453125 18.82421875 30.4765625 C18.76714995 39.03688307 19.46120278 46.07650348 25 53 C29.29199502 57.26891978 32.36313348 58.80099121 38.3125 59.25 C44.90667789 58.80293709 49.19257714 56.2534706 53.73828125 51.6953125 C58.24031513 45.64614004 57.89723479 38.17787831 57 31 C54.67601795 24.9685282 51.81076989 20.95447747 46 18 C42.81127251 16.99312347 39.91237458 16.88382014 36.578125 16.90234375 C35.55332031 16.90556641 34.52851562 16.90878906 33.47265625 16.91210938 C31.87744141 16.92467773 31.87744141 16.92467773 30.25 16.9375 C29.17105469 16.94201172 28.09210937 16.94652344 26.98046875 16.95117188 C24.32025617 16.96294273 21.66015635 16.97938601 19 17 Z " fill="#3E3E3E" transform="translate(747,85)"/>
<path d="M0 0 C6.35621178 6.02235015 7.53564364 11.03514908 8.625 19.75 C1.365 19.75 -5.895 19.75 -13.375 19.75 C-14.365 17.44 -15.355 15.13 -16.375 12.75 C-21.01789435 9.4027971 -24.85612368 9.22439273 -30.375 9.75 C-33.32207246 10.6344609 -33.32207246 10.6344609 -35.375 12.75 C-36.89323399 16.31454936 -37.71331091 18.54954193 -36.6484375 22.328125 C-32.96323018 29.33680151 -21.80457992 30.95935025 -14.75 33.1875 C-13.85563232 33.45159668 -12.96126465 33.71569336 -12.03979492 33.98779297 C-3.3014216 36.70323905 3.17930824 40.80676697 7.7265625 48.87890625 C8.85821386 51.23569322 9.42882379 53.13431722 9.625 55.75 C9.728125 56.94625 9.83125 58.1425 9.9375 59.375 C9.78121563 66.90506501 7.06373185 73.69291616 1.9375 79.1875 C-6.53275211 86.89922207 -16.27374038 88.25001645 -27.3828125 88.0234375 C-37.25192675 87.54259788 -46.62315524 84.11947713 -53.375 76.75 C-57.79968829 70.36803783 -58.375 66.81171244 -58.375 58.75 C-51.775 58.75 -45.175 58.75 -38.375 58.75 C-37.055 61.72 -35.735 64.69 -34.375 67.75 C-29.54265374 71.03599546 -25.29228071 71.12277304 -19.68359375 70.3203125 C-16.36172481 69.49968159 -14.57099637 68.37102793 -12.375 65.75 C-11.13140981 62.17467821 -11.23056653 60.26583382 -12.25 56.625 C-17.57376989 49.4222525 -29.71219808 47.54764189 -37.93554688 45.01367188 C-46.22038186 42.28138058 -52.63933023 38.40840679 -56.875 30.5625 C-59.57340168 23.49124202 -59.57495606 15.87560775 -56.6875 8.875 C-52.5741795 0.98994963 -47.65054009 -3.17556751 -39.375 -6.25 C-25.8268857 -9.98868728 -11.18882009 -9.0252361 0 0 Z " fill="#434343" transform="translate(639.375,73.25)"/>
<path d="M0 0 C6.27 0 12.54 0 19 0 C19.495 15.345 19.495 15.345 20 31 C23.3 29.02 26.6 27.04 30 25 C37.64180188 23.08954953 47.89318959 22.47757096 55.23046875 25.8984375 C63.28281445 30.91115602 67.87102808 36.84074141 70.08935547 46.04663086 C71.25104749 51.4998162 71.25246147 56.82327322 71.1953125 62.37890625 C71.1924826 63.43158188 71.18965271 64.48425751 71.18673706 65.5688324 C71.17562562 68.90017516 71.15053798 72.23123977 71.125 75.5625 C71.11495852 77.83398047 71.10583472 80.10546519 71.09765625 82.37695312 C71.07571592 87.9180744 71.041249 93.45899019 71 99 C64.4 99 57.8 99 51 99 C50.98541748 97.60765137 50.97083496 96.21530273 50.95581055 94.78076172 C50.89773456 89.6032575 50.82050158 84.42618393 50.73754883 79.24902344 C50.70434334 77.01048789 50.67629784 74.77186951 50.65356445 72.53320312 C50.61993855 69.31083961 50.56761728 66.08923226 50.51171875 62.8671875 C50.50532883 61.87008759 50.4989389 60.87298767 50.49235535 59.84567261 C50.37982186 54.49862848 50.02736182 50.60224523 47 46 C43.32967674 42.5131929 40.42369158 41.71636536 35.5 41.5625 C30.99417993 41.75228318 27.6964027 42.22769798 24 45 C19.81306789 51.64134059 19.82255609 58.28836332 19.68359375 65.89453125 C19.66281265 66.84188644 19.64203156 67.78924164 19.62062073 68.76530457 C19.55542222 71.7809651 19.49637868 74.7967101 19.4375 77.8125 C19.39428652 79.86133674 19.35067134 81.91016504 19.30664062 83.95898438 C19.19901807 88.97257107 19.09972383 93.98622511 19 99 C12.73 99 6.46 99 0 99 C0 66.33 0 33.66 0 0 Z " fill="#404040" transform="translate(664,61)"/>
<path d="M0 0 C7.18374471 5.79714922 11.67982049 15.30588441 12.6875 24.375 C13.03763263 34.67473475 13.03763263 34.67473475 11.6875 37.375 C-5.8025 37.375 -23.2925 37.375 -41.3125 37.375 C-38.16803809 46.87363574 -38.16803809 46.87363574 -31.3125 51.375 C-26.28391801 53.051194 -21.97219589 52.98142735 -17.0625 51.1875 C-14.17035013 49.57537565 -14.17035013 49.57537565 -12.8125 46.78125 C-9.40881247 43.50520075 -7.07723895 43.85656161 -2.49609375 43.93554688 C-1.04396484 43.99838867 -1.04396484 43.99838867 0.4375 44.0625 C1.42105469 44.08505859 2.40460937 44.10761719 3.41796875 44.13085938 C5.8426947 44.18971195 8.26431983 44.27186569 10.6875 44.375 C8.10110562 53.36281272 4.10110568 59.91630748 -3.984375 65.08203125 C-14.52794837 70.49419095 -27.92121007 71.5330291 -39.3125 67.9375 C-48.99970378 63.66679726 -54.85252358 56.59806565 -59.25390625 47.171875 C-63.1028244 37.00277759 -62.78673504 23.30388014 -58.3125 13.375 C-53.8998356 4.80745571 -47.55234389 -1.61752619 -38.5625 -5.375 C-25.67196092 -9.32955521 -11.15859661 -7.36927956 0 0 Z M-37.85546875 15.31640625 C-40.64051235 19.49660206 -40.64051235 19.49660206 -41.3125 24.375 C-30.0925 24.375 -18.8725 24.375 -7.3125 24.375 C-10.31700404 14.86533806 -10.31700404 14.86533806 -17.5625 10.125 C-25.353131 8.00028246 -32.62463391 8.73482419 -37.85546875 15.31640625 Z " fill="#414141" transform="translate(951.3125,91.625)"/>
<path d="M0 0 C22.44 0 44.88 0 68 0 C68 5.28 68 10.56 68 16 C60.08 16 52.16 16 44 16 C44 41.41 44 66.82 44 93 C37.4 93 30.8 93 24 93 C24 67.59 24 42.18 24 16 C16.08 16 8.16 16 0 16 C0 10.72 0 5.44 0 0 Z " fill="#424242" transform="translate(322,67)"/>
<path d="M0 0 C0 6.6 0 13.2 0 20 C-3.22265625 20.42317708 -6.4453125 20.84635417 -9.66796875 21.26953125 C-14.30849762 22.28685704 -16.98064588 23.43277397 -19.609375 27.47436523 C-21.44829039 32.13654522 -21.47763346 36.24222012 -21.51171875 41.2109375 C-21.52966995 42.17907379 -21.54762115 43.14721008 -21.56611633 44.14468384 C-21.62007795 47.22141227 -21.65406989 50.2979868 -21.6875 53.375 C-21.72068553 55.46746926 -21.75517633 57.55991826 -21.79101562 59.65234375 C-21.87824162 64.7682496 -21.93843173 69.88346425 -22 75 C-28.6 75 -35.2 75 -42 75 C-42 50.58 -42 26.16 -42 1 C-35.4 1 -28.8 1 -22 1 C-21.67 3.31 -21.34 5.62 -21 8 C-20.49210938 7.59007813 -19.98421875 7.18015625 -19.4609375 6.7578125 C-12.74192564 1.49836127 -8.80146315 0 0 0 Z " fill="#444444" transform="translate(883,85)"/>
<path d="M0 0 C0 6.6 0 13.2 0 20 C-5.22460938 20.5859375 -5.22460938 20.5859375 -10.44921875 21.171875 C-14.55096585 22.12849809 -16.22274043 22.82876841 -19 26 C-23.72683208 34.88108399 -22.56515079 46.36170938 -22.6875 56.125 C-22.72072473 57.95835699 -22.75521903 59.79169143 -22.79101562 61.625 C-22.87768337 66.08335005 -22.93824633 70.5409595 -23 75 C-29.27 75 -35.54 75 -42 75 C-42 50.58 -42 26.16 -42 1 C-35.73 1 -29.46 1 -23 1 C-22.67 3.97 -22.34 6.94 -22 10 C-21.54625 9.278125 -21.0925 8.55625 -20.625 7.8125 C-14.52863524 1.28068062 -8.84465651 0 0 0 Z " fill="#3F3F3F" transform="translate(445,85)"/>
<path d="M0 0 C6.27 0 12.54 0 19 0 C19 24.42 19 48.84 19 74 C12.73 74 6.46 74 0 74 C0 49.58 0 25.16 0 0 Z " fill="#3B3B3B" transform="translate(457,86)"/>
<path d="M0 0 C3.07469523 1.70251719 5.40613254 3.81226508 7 7 C7.51816286 11.79937735 7.71207367 15.73409126 5.3125 20 C1.97162429 22.88940602 -0.58165064 23.81893412 -4.9375 24.375 C-8.95422287 23.88315638 -10.91865639 22.6020235 -14 20 C-16.89045216 15.89742275 -17.47632849 12.73124687 -16.65234375 7.8984375 C-14.02948889 0.2654587 -7.03199711 -1.08547606 0 0 Z " fill="#D14F60" transform="translate(471,55)"/>
<path d="M0 0 C0.78831418 -0.00085442 1.57662835 -0.00170885 2.38883084 -0.00258917 C5.0266744 -0.00423447 7.66445418 0.00126187 10.30229187 0.00672913 C12.19463093 0.00701123 14.08697009 0.00685281 15.97930908 0.00628662 C21.11522242 0.00599955 26.25111243 0.0118818 31.38702035 0.01886058 C36.75486906 0.02510904 42.12271829 0.0256991 47.49057007 0.02688599 C57.65479133 0.02999489 67.81900184 0.03820236 77.98321837 0.04823548 C89.5550595 0.05941027 101.12690114 0.06491051 112.69874632 0.06993091 C136.50239181 0.08038532 160.30602776 0.09797626 184.10966492 0.12025452 C184.16396451 1.8699081 184.20259315 3.62005238 184.23466492 5.37025452 C184.25786804 6.34478577 184.28107117 7.31931702 184.30497742 8.32337952 C184.10966492 11.12025452 184.10966492 11.12025452 182.10966492 15.12025452 C182.10966492 10.83025452 182.10966492 6.54025452 182.10966492 2.12025452 C180.63865137 2.13075049 180.63865137 2.13075049 179.13792038 2.14145851 C155.29434827 2.31112466 131.45072087 2.46918783 107.60699081 2.61503029 C96.07642547 2.68582773 84.54590779 2.76041833 73.01542664 2.84388733 C62.96742825 2.91661508 52.91941302 2.98227817 42.87131333 3.03939855 C37.54915843 3.06990168 32.22707988 3.1039825 26.90500641 3.14651871 C21.89828553 3.18642298 16.89159679 3.21689891 11.88477135 3.24006844 C10.04488798 3.25025846 8.20502016 3.26392635 6.36519051 3.28129005 C3.85733542 3.30444366 1.34972497 3.31519718 -1.15821838 3.32279968 C-1.88973814 3.33251631 -2.6212579 3.34223294 -3.37494493 3.35224402 C-7.05044183 3.34952162 -9.76777028 3.15292361 -12.89033508 1.12025452 C-8.5844161 0.06357748 -4.40603996 -0.017521 0 0 Z " fill="#DA8896" transform="translate(85.89033508300781,26.879745483398438)"/>
<path d="M0 0 C17.16 0 34.32 0 52 0 C52 18.81 52 37.62 52 57 C48.59194066 57.68161187 46.137537 58.12517158 42.79888916 58.12698364 C41.99411636 58.12980347 41.18934357 58.13262329 40.36018372 58.13552856 C39.49141098 58.13350433 38.62263824 58.1314801 37.72753906 58.12939453 C36.80182602 58.13114685 35.87611298 58.13289917 34.92234802 58.13470459 C31.87008782 58.1390974 28.81788577 58.13619512 25.765625 58.1328125 C23.64524321 58.13348605 21.5248615 58.1344565 19.40447998 58.13571167 C14.96609765 58.13718496 10.52773546 58.13504504 6.08935547 58.13037109 C0.38703951 58.12466011 -5.31522953 58.12796379 -11.01754379 58.13394356 C-15.39254107 58.13754725 -19.76752711 58.13641172 -24.14252472 58.13381577 C-26.24617773 58.13314668 -28.34983175 58.13397427 -30.45348358 58.13629532 C-33.38405588 58.13882019 -36.3145507 58.13498424 -39.24511719 58.12939453 C-40.56042168 58.13243088 -40.56042168 58.13243088 -41.90229797 58.13552856 C-47.88573467 58.11426533 -47.88573467 58.11426533 -49 57 C-50.06649539 48.81770749 -47.68427705 41.64539623 -45 34 C-44.34 34.99 -43.68 35.98 -43 37 C-43.66 37 -44.32 37 -45 37 C-44.96519531 37.90492188 -44.96519531 37.90492188 -44.9296875 38.828125 C-44.91164063 39.62734375 -44.89359375 40.4265625 -44.875 41.25 C-44.85179687 42.03890625 -44.82859375 42.8278125 -44.8046875 43.640625 C-45.02128916 46.25717307 -45.82134149 47.67760619 -47 50 C-47.33 51.98 -47.66 53.96 -48 56 C-15.33 56 17.34 56 51 56 C51 37.85 51 19.7 51 1 C34.17 1 17.34 1 0 1 C0 0.67 0 0.34 0 0 Z " fill="#F2D4A2" transform="translate(78,142)"/>
<path d="M0 0 C1.12085999 0.00007553 2.24171997 0.00015106 3.39654541 0.00022888 C4.60083191 0.00539017 5.80511841 0.01055145 7.04589844 0.01586914 C8.28321716 0.01728409 9.52053589 0.01869904 10.79534912 0.02015686 C14.07672285 0.0248043 17.35804717 0.03378192 20.6394043 0.04486084 C23.99104355 0.05511019 27.34268492 0.0595768 30.69433594 0.06469727 C37.26468778 0.07487439 43.83491727 0.09445016 50.40527344 0.11352539 C50.40527344 18.26352539 50.40527344 36.41352539 50.40527344 55.11352539 C17.73527344 55.11352539 -14.93472656 55.11352539 -48.59472656 55.11352539 C-48.59472656 53.13352539 -48.59472656 51.15352539 -48.59472656 49.11352539 C-48.26472656 49.11352539 -47.93472656 49.11352539 -47.59472656 49.11352539 C-47.59472656 50.76352539 -47.59472656 52.41352539 -47.59472656 54.11352539 C-15.58472656 54.11352539 16.42527344 54.11352539 49.40527344 54.11352539 C49.40527344 36.62352539 49.40527344 19.13352539 49.40527344 1.11352539 C40.86652344 1.25790039 32.32777344 1.40227539 23.53027344 1.55102539 C20.83371582 1.59412842 18.1371582 1.63723145 15.35888672 1.68164062 C13.23111293 1.71975213 11.10334548 1.75822028 8.97558594 1.79711914 C7.86304443 1.81359497 6.75050293 1.8300708 5.60424805 1.8470459 C4.54874756 1.86722778 3.49324707 1.88740967 2.40576172 1.90820312 C1.48642853 1.92374741 0.56709534 1.93929169 -0.38009644 1.95530701 C-2.6354781 1.97459319 -2.6354781 1.97459319 -4.59472656 3.11352539 C-7.26708866 3.24768011 -9.91723145 3.1567108 -12.59472656 3.11352539 C-8.28714553 0.2418047 -5.12061441 -0.01153292 0 0 Z " fill="#E3AE5D" transform="translate(78.5947265625,142.886474609375)"/>
<path d="M0 0 C-0.33 0.99 -0.66 1.98 -1 3 C-3.64 3.99 -6.28 4.98 -9 6 C-9.33 23.82 -9.66 41.64 -10 60 C18.71 59.505 18.71 59.505 48 59 C48 59.33 48 59.66 48 60 C44.42664606 60.81742961 41.13785349 61.1221027 37.4753418 61.11352539 C35.83172668 61.11334412 35.83172668 61.11334412 34.15490723 61.11315918 C33.01453003 61.10804321 31.87415283 61.10292725 30.69921875 61.09765625 C29.64271118 61.09664917 28.58620361 61.09564209 27.49768066 61.09460449 C23.56094269 61.08938279 19.62422023 61.07542153 15.6875 61.0625 C6.880625 61.041875 -1.92625 61.02125 -11 61 C-11 41.86 -11 22.72 -11 3 C-3 0 -3 0 0 0 Z " fill="#E7C693" transform="translate(180,138)"/>
<path d="M0 0 C0 0.99 0 1.98 0 3 C-0.66 3 -1.32 3 -2 3 C-2 3.66 -2 4.32 -2 5 C-2.94875 5.0825 -3.8975 5.165 -4.875 5.25 C-8.05273288 5.64470576 -8.05273288 5.64470576 -9.25 7.8125 C-9.4975 8.534375 -9.745 9.25625 -10 10 C-10.75 12.125 -10.75 12.125 -12 14 C-13.97746603 14.73080266 -15.98072489 15.39421747 -18 16 C-21.68602389 18.1501806 -22.6178972 20.02645444 -24 24 C-24.69762083 25.60885424 -25.40674532 27.21275095 -26.125 28.8125 C-26.47820313 29.60269531 -26.83140625 30.39289062 -27.1953125 31.20703125 C-27.46085937 31.79871094 -27.72640625 32.39039063 -28 33 C-28.66 33 -29.32 33 -30 33 C-30.33 33.99 -30.66 34.98 -31 36 C-31.33 35.34 -31.66 34.68 -32 34 C-27.17907376 21.93358812 -15.46891057 0 0 0 Z " fill="#D1717F" transform="translate(63,32)"/>
<path d="M0 0 C3.06765423 1.72196807 5.40321354 3.80642707 7 7 C7.51816286 11.79937735 7.71207367 15.73409126 5.3125 20 C1.94413187 22.91318325 -0.58922059 23.85304381 -5 24.3125 C-8.40405325 23.95791112 -10.26190923 23.01330204 -13 21 C-13 20.67 -13 20.34 -13 20 C-11.35 20 -9.7 20 -8 20 C-8 20.66 -8 21.32 -8 22 C-5.03 21.67 -2.06 21.34 1 21 C1 20.34 1 19.68 1 19 C1.99 19 2.98 19 4 19 C4 18.01 4 17.02 4 16 C4.66 16 5.32 16 6 16 C5.67 13.69 5.34 11.38 5 9 C3.02 9.33 1.04 9.66 -1 10 C-1.33 8.68 -1.66 7.36 -2 6 C-1.01 5.67 -0.02 5.34 1 5 C1 4.01 1 3.02 1 2 C-4.94 2.495 -4.94 2.495 -11 3 C-11.33 3.99 -11.66 4.98 -12 6 C-12.66 5.67 -13.32 5.34 -14 5 C-14 4.34 -14 3.68 -14 3 C-9.79732804 -0.52482164 -5.25432596 -1.01577479 0 0 Z " fill="#D26676" transform="translate(471,55)"/>
<path d="M0 0 C0.33 0 0.66 0 1 0 C1 8.91 1 17.82 1 27 C2.32 27.33 3.64 27.66 5 28 C6.375 30.1875 6.375 30.1875 7 33 C6.125 36.3125 6.125 36.3125 5 39 C5.66 39 6.32 39 7 39 C7.33 40.65 7.66 42.3 8 44 C8.66 44 9.32 44 10 44 C10.33 44.66 10.66 45.32 11 46 C11.66 46 12.32 46 13 46 C13 47.65 13 49.3 13 51 C13.66 51.33 14.32 51.66 15 52 C14.01 52 13.02 52 12 52 C2.50713532 42.03474158 -1.19049734 28.43487264 -1.125 15.0625 C-1.12886719 14.27681641 -1.13273437 13.49113281 -1.13671875 12.68164062 C-1.12945647 8.34242825 -0.86408587 4.27242458 0 0 Z " fill="#D37B86" transform="translate(30,69)"/>
<path d="M0 0 C0 0.66 0 1.32 0 2 C-5.44116596 3.82109778 -10.15749998 4.27856925 -15.87280273 4.22705078 C-17.16180733 4.22748886 -17.16180733 4.22748886 -18.47685242 4.22793579 C-21.29587163 4.22655086 -24.11462114 4.21102931 -26.93359375 4.1953125 C-28.89656937 4.19157939 -30.85954687 4.18873383 -32.82252502 4.18673706 C-37.97310589 4.17912407 -43.12357283 4.15949569 -48.27410889 4.1373291 C-53.53623921 4.11682031 -58.79838805 4.1077246 -64.06054688 4.09765625 C-74.3737478 4.07624754 -84.6868644 4.04213987 -95 4 C-95 3.67 -95 3.34 -95 3 C-93.93590912 2.99191315 -92.87181824 2.98382629 -91.77548218 2.97549438 C-81.74083475 2.89796446 -71.70632177 2.81020779 -61.6718502 2.71247292 C-56.51319435 2.66255582 -51.35455852 2.61622528 -46.19580078 2.578125 C-41.2160677 2.54121439 -36.23650401 2.49483858 -31.25691605 2.44193649 C-29.3583842 2.42342327 -27.45981608 2.40830399 -25.56122971 2.39665604 C-22.89920507 2.37974106 -20.23756576 2.35069332 -17.57568359 2.31884766 C-16.40179581 2.31560738 -16.40179581 2.31560738 -15.20419312 2.31230164 C-9.84890081 2.23061486 -5.18234208 0 0 0 Z " fill="#D6818F" transform="translate(231,80)"/>
<path d="M0 0 C7.44344954 9.92459939 7.14264604 23.06190707 6 35 C5.07008391 40.33395009 3.90325523 46.09674477 0 50 C0.33 47.03 0.66 44.06 1 41 C1.33 41 1.66 41 2 41 C3.66732298 35.91863474 4.31166865 31.36517237 4.25 26 C4.25773437 25.32710937 4.26546875 24.65421875 4.2734375 23.9609375 C4.25525057 19.25052382 3.45200533 15.42515911 2 11 C1.01 11.495 1.01 11.495 0 12 C0 8.04 0 4.08 0 0 Z " fill="#F1D39E" transform="translate(264,118)"/>
<path d="M0 0 C8.76796079 -0.50584389 16.9348847 1.60881806 25 5 C23.02 5.99 23.02 5.99 21 7 C21 6.34 21 5.68 21 5 C19.700625 5.061875 19.700625 5.061875 18.375 5.125 C14.83273633 4.99380505 12.33158636 4.15585649 9 3 C6.67305036 2.62468554 4.34023315 2.28082798 2 2 C2.061875 3.175625 2.12375 4.35125 2.1875 5.5625 C2.21144173 10.03960301 0.9879056 13.0241888 -1 17 C-2.3357457 13.22628488 -1.72408671 10.14168653 -1.0625 6.25 C-0.86785156 5.07953125 -0.67320312 3.9090625 -0.47265625 2.703125 C-0.31667969 1.81109375 -0.16070312 0.9190625 0 0 Z " fill="#ECCC94" transform="translate(213,86)"/>
<path d="M0 0 C1.12085999 0.00007553 2.24171997 0.00015106 3.39654541 0.00022888 C4.60083191 0.00539017 5.80511841 0.01055145 7.04589844 0.01586914 C8.28321716 0.01728409 9.52053589 0.01869904 10.79534912 0.02015686 C14.07672285 0.0248043 17.35804717 0.03378192 20.6394043 0.04486084 C23.99104355 0.05511019 27.34268492 0.0595768 30.69433594 0.06469727 C37.26466775 0.07572514 43.83496655 0.09246243 50.40527344 0.11352539 C50.07527344 0.77352539 49.74527344 1.43352539 49.40527344 2.11352539 C48.7582547 2.11130478 48.11123596 2.10908417 47.4446106 2.10679626 C40.72919261 2.08472571 34.01378488 2.06961135 27.29833984 2.05859375 C24.78987205 2.05355536 22.2814072 2.04672455 19.77294922 2.03808594 C16.17382073 2.02599878 12.57473097 2.02029224 8.97558594 2.01586914 C7.84847198 2.01070786 6.72135803 2.00554657 5.56008911 2.00022888 C3.99869705 2.00011559 3.99869705 2.00011559 2.40576172 2 C1.48642853 1.99777939 0.56709534 1.99555878 -0.38009644 1.99327087 C-2.63623244 1.9684201 -2.63623244 1.9684201 -4.59472656 3.11352539 C-7.26708866 3.24768011 -9.91723145 3.1567108 -12.59472656 3.11352539 C-8.28714553 0.2418047 -5.12061441 -0.01153292 0 0 Z " fill="#DCAF68" transform="translate(78.5947265625,142.886474609375)"/>
<path d="M0 0 C1.65 0 3.3 0 5 0 C3.54753932 4.53997711 1.16368341 7.34493308 -2.0625 10.8125 C-2.52205078 11.31458984 -2.98160156 11.81667969 -3.45507812 12.33398438 C-4.610392 13.58090905 -5.80223996 14.79379016 -7 16 C-7.33 16 -7.66 16 -8 16 C-8 14.35 -8 12.7 -8 11 C-7.34 11 -6.68 11 -6 11 C-5.67 10.01 -5.34 9.02 -5 8 C-4.01 8.33 -3.02 8.66 -2 9 C-2 8.01 -2 7.02 -2 6 C-1.34 6 -0.68 6 0 6 C0 4.02 0 2.04 0 0 Z " fill="#ECC480" transform="translate(258,170)"/>
<path d="M0 0 C2.97 0.495 2.97 0.495 6 1 C4.5914614 4.58655662 3.08643135 8.11356963 1.5 11.625 C1.0771875 12.56601563 0.654375 13.50703125 0.21875 14.4765625 C-1 17 -1 17 -3 20 C-4.125 14.25 -4.125 14.25 -3 12 C-2.34 12 -1.68 12 -1 12 C-0.67 10.35 -0.34 8.7 0 7 C0.66 7 1.32 7 2 7 C2 5.02 2 3.04 2 1 C1.34 0.67 0.68 0.34 0 0 Z " fill="#D88491" transform="translate(90,106)"/>
<path d="M0 0 C0 3 0 3 -1.9375 5.625 C-5.87582909 8.6792144 -9.0601272 9.33944876 -14 9 C-17.0625 7.625 -17.0625 7.625 -19 6 C-19 5.67 -19 5.34 -19 5 C-17.35 5 -15.7 5 -14 5 C-14 5.66 -14 6.32 -14 7 C-9.545 6.505 -9.545 6.505 -5 6 C-5 5.34 -5 4.68 -5 4 C-4.01 4 -3.02 4 -2 4 C-2 3.01 -2 2.02 -2 1 C-1.34 0.67 -0.68 0.34 0 0 Z " fill="#D78795" transform="translate(477,70)"/>
<path d="M0 0 C0 5.96632905 -3.58510124 11.61923042 -6 17 C-6.66 17 -7.32 17 -8 17 C-8.33 17.99 -8.66 18.98 -9 20 C-9.33 19.34 -9.66 18.68 -10 18 C-8.80572714 15.26349329 -7.55528228 12.64761917 -6.1875 10 C-5.81818359 9.26265625 -5.44886719 8.5253125 -5.06835938 7.765625 C-2.28101809 2.28101809 -2.28101809 2.28101809 0 0 Z " fill="#D98895" transform="translate(41,48)"/>
<path d="M0 0 C0.66 0.99 1.32 1.98 2 3 C1.34 3 0.68 3 0 3 C0.02320313 3.60328125 0.04640625 4.2065625 0.0703125 4.828125 C0.08835937 5.62734375 0.10640625 6.4265625 0.125 7.25 C0.14820313 8.03890625 0.17140625 8.8278125 0.1953125 9.640625 C-0.01952738 12.23589072 -0.7723577 13.7307218 -2 16 C-2.38290462 17.99110401 -2.72604615 19.99100513 -3 22 C-2.01 22.33 -1.02 22.66 0 23 C-1.32 23 -2.64 23 -4 23 C-4.67620721 14.67889465 -2.74493505 7.81816322 0 0 Z " fill="#EECC98" transform="translate(33,176)"/>
<path d="M0 0 C0.33 0 0.66 0 1 0 C1 1.65 1 3.3 1 5 C1.66 5 2.32 5 3 5 C3.33 6.65 3.66 8.3 4 10 C4.66 10 5.32 10 6 10 C6.33 10.66 6.66 11.32 7 12 C7.66 12 8.32 12 9 12 C9 13.65 9 15.3 9 17 C9.66 17.33 10.32 17.66 11 18 C10.01 18 9.02 18 8 18 C6.24609375 15.953125 6.24609375 15.953125 4.4375 13.25 C3.83808594 12.36828125 3.23867188 11.4865625 2.62109375 10.578125 C-1.10793651 4.64761905 -1.10793651 4.64761905 -0.625 1.75 C-0.41875 1.1725 -0.2125 0.595 0 0 Z " fill="#D88995" transform="translate(34,103)"/>
<path d="M0 0 C0.66 0.33 1.32 0.66 2 1 C0.79662881 7.89203498 -1.32135086 13.06080693 -5 19 C-5.33 19 -5.66 19 -6 19 C-6.33 17.02 -6.66 15.04 -7 13 C-6.34 13 -5.68 13 -5 13 C-4.71125 12.2575 -4.4225 11.515 -4.125 10.75 C-3 8 -3 8 -1.9375 5.9375 C-0.9864105 3.97191503 -0.45634481 2.1296091 0 0 Z " fill="#D98996" transform="translate(266,41)"/>
<path d="M0 0 C0.33 0 0.66 0 1 0 C1 1.98 1 3.96 1 6 C-6.51806849 6.44032071 -12.84224277 5.28612778 -20 3 C-16.73086376 1.96884721 -14.13958652 2.0361016 -10.75 2.4375 C-9.85796875 2.53933594 -8.9659375 2.64117187 -8.046875 2.74609375 C-7.37140625 2.82988281 -6.6959375 2.91367188 -6 3 C-6 3.66 -6 4.32 -6 5 C-4.02 5 -2.04 5 0 5 C0 3.35 0 1.7 0 0 Z " fill="#DF98A3" transform="translate(85,134)"/>
<path d="M0 0 C0.66 0.33 1.32 0.66 2 1 C1.5 3.3125 1.5 3.3125 0 6 C-1.97060564 7.01296791 -3.90950216 7.67896982 -6.02734375 8.32421875 C-8.27932708 9.00197408 -8.27932708 9.00197408 -11 11 C-9.52202738 7.32943063 -7.52384523 5.58914217 -4.375 3.25 C-3.55773438 2.63640625 -2.74046875 2.0228125 -1.8984375 1.390625 C-0.95871094 0.70226562 -0.95871094 0.70226562 0 0 Z " fill="#EECD8F" transform="translate(54,151)"/>
<path d="M0 0 C0.66 0 1.32 0 2 0 C2.33 0.66 2.66 1.32 3 2 C4.65 2 6.3 2 8 2 C5.25604436 4.94721162 2.61662784 7.19168608 -1 9 C-1.66 8.67 -2.32 8.34 -3 8 C-2.01 5.36 -1.02 2.72 0 0 Z " fill="#ECC172" transform="translate(242,184)"/>
<path d="M0 0 C4.67105792 1.55701931 8.08705685 4.08447373 12 7 C11.67 7.66 11.34 8.32 11 9 C8.69 9 6.38 9 4 9 C4.33 7.68 4.66 6.36 5 5 C4.360625 4.731875 3.72125 4.46375 3.0625 4.1875 C1 3 1 3 0 0 Z " fill="#EDC37C" transform="translate(238,92)"/>
<path d="M0 0 C0 0.66 0 1.32 0 2 C-3.63 2.33 -7.26 2.66 -11 3 C-11.33 3.99 -11.66 4.98 -12 6 C-12.66 5.67 -13.32 5.34 -14 5 C-14 4.34 -14 3.68 -14 3 C-9.62850344 -0.66641647 -5.39741292 -0.31749488 0 0 Z " fill="#D17F8D" transform="translate(471,55)"/>
<path d="M0 0 C0 0.99 0 1.98 0 3 C-0.66 3 -1.32 3 -2 3 C-2 3.66 -2 4.32 -2 5 C-4.70879335 6.35439668 -7.00933268 6.06501451 -10 6 C-4.4 0 -4.4 0 0 0 Z " fill="#D47787" transform="translate(63,32)"/>
<path d="M0 0 C0.33 1.32 0.66 2.64 1 4 C-2 6 -2 6 -5 6 C-5.33 6.99 -5.66 7.98 -6 9 C-7.32 8.67 -8.64 8.34 -10 8 C-6.7 5.36 -3.4 2.72 0 0 Z " fill="#EBC98D" transform="translate(196,126)"/>
<path d="M0 0 C3.375 4.5 3.375 4.5 3.6875 8.75 C3.75324219 9.54921875 3.81898438 10.3484375 3.88671875 11.171875 C3.92410156 11.77515625 3.96148437 12.3784375 4 13 C3.34 12.34 2.68 11.68 2 11 C1.01 11.495 1.01 11.495 0 12 C0 8.04 0 4.08 0 0 Z " fill="#EBC27C" transform="translate(264,118)"/>
<path d="M0 0 C1.258125 -0.04125 2.51625 -0.0825 3.8125 -0.125 C4.52019531 -0.14820312 5.22789062 -0.17140625 5.95703125 -0.1953125 C8 0 8 0 11 2 C6.71 2.66 2.42 3.32 -2 4 C-1.34 2.68 -0.68 1.36 0 0 Z " fill="#D68591" transform="translate(125,83)"/>
<path d="M0 0 C-0.33 0.99 -0.66 1.98 -1 3 C-3.06640625 3.94921875 -3.06640625 3.94921875 -5.5625 4.6875 C-6.38878906 4.93886719 -7.21507812 5.19023437 -8.06640625 5.44921875 C-8.70449219 5.63097656 -9.34257812 5.81273437 -10 6 C-9.6796875 4.078125 -9.6796875 4.078125 -9 2 C-5.82254537 0.61849799 -3.46877176 0 0 0 Z " fill="#E7C486" transform="translate(180,138)"/>
<path d="M0 0 C3.82669043 3.42388092 5.72278474 6.00724943 7 11 C6.34 11 5.68 11 5 11 C5 10.34 5 9.68 5 9 C4.34 9 3.68 9 3 9 C2.01 6.03 1.02 3.06 0 0 Z " fill="#EDC88E" transform="translate(257,107)"/>
<path d="M0 0 C0.66 0.33 1.32 0.66 2 1 C1.67 1.66 1.34 2.32 1 3 C1.66 3 2.32 3 3 3 C3 3.99 3 4.98 3 6 C-0.68754757 5.50168276 -2.60490662 4.89932357 -5 2 C-2.625 0.9375 -2.625 0.9375 0 0 Z " fill="#666666" transform="translate(523,153)"/>
<path d="M0 0 C0.33 0.66 0.66 1.32 1 2 C-1.45614035 7 -1.45614035 7 -3 9 C-3.99 9.33 -4.98 9.66 -6 10 C-4.6302836 6.00499382 -2.74277578 3.19990508 0 0 Z " fill="#EDC98E" transform="translate(42,162)"/>
<path d="M0 0 C0 0.33 0 0.66 0 1 C-5.24385089 2.7479503 -9.47322267 3.19392201 -15 3 C-9.97583178 -0.34944548 -5.90048743 -0.09834146 0 0 Z " fill="#EDC990" transform="translate(81,143)"/>
<path d="M0 0 C1.4540625 0.0309375 1.4540625 0.0309375 2.9375 0.0625 C1.65467836 2.62814327 0.53978656 2.94723433 -2.0625 4.0625 C-3.3867287 4.43034131 -4.71863912 4.77452981 -6.0625 5.0625 C-6.3925 4.4025 -6.7225 3.7425 -7.0625 3.0625 C-6.4025 3.0625 -5.7425 3.0625 -5.0625 3.0625 C-4.7325 2.4025 -4.4025 1.7425 -4.0625 1.0625 C-3.0625 0.0625 -3.0625 0.0625 0 0 Z " fill="#CE4858" transform="translate(469.0625,56.9375)"/>
<path d="M0 0 C0.66 0 1.32 0 2 0 C2.33 0.99 2.66 1.98 3 3 C2.01 4.485 2.01 4.485 1 6 C0.34 6 -0.32 6 -1 6 C-1.33 6.99 -1.66 7.98 -2 9 C-2.33 8.34 -2.66 7.68 -3 7 C-2.06421005 4.64018187 -1.06652192 2.30368736 0 0 Z " fill="#D47E8A" transform="translate(34,59)"/>
<path d="M0 0 C-2.95183101 2.95183101 -5.95511947 3.08663988 -10 4 C-4.75 -1.425 -4.75 -1.425 0 0 Z " fill="#ECC88B" transform="translate(239,193)"/>
<path d="M0 0 C0.33 0 0.66 0 1 0 C0.39174965 4.34464536 -0.26167392 8.67551867 -1 13 C-1.33 13 -1.66 13 -2 13 C-2.05447047 11.58376784 -2.09300508 10.16691809 -2.125 8.75 C-2.14820313 7.96109375 -2.17140625 7.1721875 -2.1953125 6.359375 C-1.9828378 3.79268059 -1.28654105 2.2083933 0 0 Z " fill="#E5AD5C" transform="translate(268,147)"/>
<path d="M0 0 C2 3 2 3 2 5 C1.34 5 0.68 5 0 5 C-0.33 5.66 -0.66 6.32 -1 7 C-2.32 6.67 -3.64 6.34 -5 6 C-3.35 4.02 -1.7 2.04 0 0 Z " fill="#EEC883" transform="translate(202,119)"/>
<path d="M0 0 C2.97 0.495 2.97 0.495 6 1 C6.33 2.65 6.66 4.3 7 6 C3.63279613 4.60667426 2.0140476 3.0210714 0 0 Z " fill="#D58994" transform="translate(44,122)"/>
<path d="M0 0 C0.66 0.33 1.32 0.66 2 1 C-1.32307692 5.8 -1.32307692 5.8 -4.75 6.8125 C-5.4925 6.874375 -6.235 6.93625 -7 7 C-4.78071806 4.09197539 -3.07030857 2.04687238 0 0 Z " fill="#898989" transform="translate(593,70)"/>
<path d="M0 0 C0.66 0.33 1.32 0.66 2 1 C-0.75 3.0625 -0.75 3.0625 -4 5 C-6.203125 4.62109375 -6.203125 4.62109375 -8 4 C-6.71349294 3.30289269 -5.42059335 2.61757124 -4.125 1.9375 C-3.40570313 1.55464844 -2.68640625 1.17179688 -1.9453125 0.77734375 C-1.30335937 0.52082031 -0.66140625 0.26429688 0 0 Z " fill="#EDCF92" transform="translate(64,146)"/>
<path d="M0 0 C0.99 0.33 1.98 0.66 3 1 C1.25 5.875 1.25 5.875 -1 7 C-1.33 5.68 -1.66 4.36 -2 3 C-1.34 3 -0.68 3 0 3 C0 2.01 0 1.02 0 0 Z " fill="#D77382" transform="translate(98,99)"/>
<path d="M0 0 C0.66 0 1.32 0 2 0 C0.9024777 2.99324263 0.32317108 3.84610901 -2.625 5.25 C-3.40875 5.4975 -4.1925 5.745 -5 6 C-4.67 4.68 -4.34 3.36 -4 2 C-2.68 2 -1.36 2 0 2 C0 1.34 0 0.68 0 0 Z " fill="#D98793" transform="translate(246,71)"/>
<path d="M0 0 C1.98 0.66 3.96 1.32 6 2 C6 3.65 6 5.3 6 7 C1.125 3.375 1.125 3.375 0 0 Z " fill="#727272" transform="translate(896,145)"/>
<path d="M0 0 C1.98 0.99 1.98 0.99 4 2 C4 2.66 4 3.32 4 4 C4.99 4.33 5.98 4.66 7 5 C6.67 5.66 6.34 6.32 6 7 C1.2 4.53846154 1.2 4.53846154 0.1875 1.8125 C0.125625 1.214375 0.06375 0.61625 0 0 Z " fill="#F0D0A1" transform="translate(250,100)"/>
<path d="M0 0 C3.465 1.98 3.465 1.98 7 4 C3.98968256 4.93423645 3.13349732 5.04449911 0 4 C0 2.68 0 1.36 0 0 Z " fill="#717171" transform="translate(795,88)"/>
<path d="M0 0 C-2.6855594 2.6855594 -5.37621328 3.06049974 -9 4 C-9 3.01 -9 2.02 -9 1 C-5.8035914 -0.06546953 -3.34252724 -0.07427838 0 0 Z " fill="#DE8B99" transform="translate(123,87)"/>
<path d="M0 0 C0.66 0 1.32 0 2 0 C1.67 2.64 1.34 5.28 1 8 C0.34 7.34 -0.32 6.68 -1 6 C-0.625 2.875 -0.625 2.875 0 0 Z " fill="#D47383" transform="translate(87,118)"/>
</svg>
