<?xml version="1.0" encoding="UTF-8"?>
<svg version="1.1" xmlns="http://www.w3.org/2000/svg" width="393" height="374">
<path d="M0 0 C0.70898438 0.51691406 1.41796875 1.03382812 2.1484375 1.56640625 C29.78367655 22.26789399 50.43798011 50.48666891 62 83 C62.54527344 84.37285156 62.54527344 84.37285156 63.1015625 85.7734375 C73.50825543 113.49813851 73.5601831 147.30898051 68 176 C67.7831958 177.13187744 67.7831958 177.13187744 67.56201172 178.28662109 C64.47806604 193.84978883 58.84655054 207.73177063 51.625 221.8125 C51.09592041 222.85019531 50.56684082 223.88789063 50.02172852 224.95703125 C46.25898681 232.12481135 41.94105391 238.59354546 37 245 C36.13205811 246.12692261 36.13205811 246.12692261 35.24658203 247.27661133 C27.84938073 256.71848825 20.16851074 265.25548139 11 273 C10.07445312 273.79921875 9.14890625 274.5984375 8.1953125 275.421875 C-1.97968383 284.01153196 -13.35623631 290.61895436 -25 297 C-25.58136719 297.31984863 -26.16273438 297.63969727 -26.76171875 297.96923828 C-46.7638331 308.5068105 -71.42309939 314.31222687 -94 315 C-95.25167969 315.03996094 -96.50335938 315.07992188 -97.79296875 315.12109375 C-142.97561456 316.06039751 -187.02112908 300.193078 -220.33886719 269.50097656 C-222.07590747 267.93141106 -223.85997257 266.43089643 -225.65625 264.9296875 C-228.50828237 262.49651274 -230.91284891 259.94444232 -233.25 257 C-234.00410156 256.05125 -234.75820312 255.1025 -235.53515625 254.125 C-236.75525391 252.578125 -236.75525391 252.578125 -238 251 C-238.93475847 249.85299208 -239.87100569 248.70719611 -240.80859375 247.5625 C-246.38022295 240.70641888 -251.08831827 233.959331 -255 226 C-255.651913 224.72697571 -256.30568771 223.45490375 -256.9609375 222.18359375 C-259.0293722 218.14872008 -261.02736433 214.08242363 -263 210 C-263.69802734 208.57300781 -263.69802734 208.57300781 -264.41015625 207.1171875 C-271.73957064 190.9500548 -274.95397231 173.64011235 -275 156 C-275.02463542 154.54294429 -275.05066518 153.08591146 -275.078125 151.62890625 C-275.66312107 109.41483507 -270.08284615 71.07639123 -243 37 C-242.12794922 35.86884766 -242.12794922 35.86884766 -241.23828125 34.71484375 C-225.2487256 14.24950985 -225.2487256 14.24950985 -219.5625 12.0625 C-217.0000353 11.20117925 -217.0000353 11.20117925 -215.5625 9.5 C-214 8 -214 8 -211.125 7.125 C-207.40337445 5.7852148 -205.73013847 3.80198421 -203 1 C-201.66893378 0.65772583 -200.33599921 0.32248257 -199 0 C-198.30062468 -1.31647119 -197.63270867 -2.65022151 -197 -4 C-196.01 -4.33 -195.02 -4.66 -194 -5 C-193.34644531 -6.16015625 -193.34644531 -6.16015625 -192.6796875 -7.34375 C-187.52365733 -15.49747213 -173.75559639 -18.92448864 -165 -22 C-164.33371582 -22.24105469 -163.66743164 -22.48210938 -162.98095703 -22.73046875 C-154.43263627 -25.81404703 -145.89609229 -28.42944368 -137 -30.3125 C-136.2476709 -30.47177979 -135.4953418 -30.63105957 -134.72021484 -30.79516602 C-88.60391709 -39.99915551 -37.51510736 -28.16947107 0 0 Z M-148 62 C-158.28961002 77.04276897 -163.68888325 93.62032 -160.28125 111.84375 C-156.10697404 127.32896727 -147.15642839 141.16477455 -133.375 149.6875 C-118.60095111 157.95725064 -103.0556397 160.08003776 -86.79272461 155.75927734 C-75.06291951 152.41835865 -67.50005728 146.46310051 -59 138 C-58.37867188 137.41347656 -57.75734375 136.82695312 -57.1171875 136.22265625 C-47.4587416 126.28608756 -44.60561498 110.87044405 -44.62890625 97.58422852 C-45.01079736 83.05804557 -50.81236348 69.68170402 -60.7421875 59.12890625 C-74.46719188 46.18750938 -89.25029687 41.3297879 -107.75390625 41.69140625 C-123.14893567 42.35382405 -137.89272853 50.48043302 -148 62 Z M-131 188 C-132.10214844 188.25523437 -133.20429688 188.51046875 -134.33984375 188.7734375 C-158.80036871 195.36477797 -180.71197246 212.95132113 -193.36743164 234.65649414 C-200.95326228 246.45012781 -200.95326228 246.45012781 -203.76831055 259.46655273 C-202.84798589 262.50125529 -201.94910694 263.28026273 -199.38671875 265.0859375 C-198.6390625 265.620979 -197.89140625 266.15602051 -197.12109375 266.70727539 C-196.31800781 267.25762451 -195.51492187 267.80797363 -194.6875 268.375 C-193.87023437 268.94790771 -193.05296875 269.52081543 -192.2109375 270.11108398 C-182.90219853 276.56947975 -173.66066446 282.07159763 -163 286 C-161.88753906 286.46148437 -160.77507812 286.92296875 -159.62890625 287.3984375 C-148.08290523 292.11650036 -136.22000803 294.64981621 -124 297 C-122.81664062 297.2371875 -121.63328125 297.474375 -120.4140625 297.71875 C-102.84974484 300.85358885 -83.13347457 301.71115819 -66 296 C-66 295.01 -66 294.02 -66 293 C-65.04996094 292.90847656 -64.09992188 292.81695312 -63.12109375 292.72265625 C-58.18109813 292.00985889 -53.69541569 290.23911878 -49.0625 288.4375 C-48.13880615 288.07962402 -47.2151123 287.72174805 -46.26342773 287.35302734 C-32.18856147 281.80090299 -20.07766932 275.08418564 -8 266 C-5.67496549 264.32135642 -3.33833607 262.66013015 -1 261 C-5.48183244 244.24329811 -14.13859326 229.52916001 -26 217 C-26.71542969 216.19433594 -27.43085938 215.38867188 -28.16796875 214.55859375 C-41.37100103 200.31517243 -60.26725169 191.01704409 -79 187 C-80.010625 186.77441406 -81.02125 186.54882812 -82.0625 186.31640625 C-98.20267694 183.26910722 -115.08770556 184.24633054 -131 188 Z " fill="#C55364" transform="translate(297,45)"/>
<path d="M0 0 C0.33 0 0.66 0 1 0 C0.93941406 1.00675781 0.87882812 2.01351562 0.81640625 3.05078125 C0.63609757 6.05834454 0.46156438 9.0661983 0.2890625 12.07421875 C0.1125344 15.14064395 -0.07949909 18.20520105 -0.2890625 21.26953125 C-1.27404994 36.5005475 -1.09515064 51.74515669 -1 67 C-1.33 67 -1.66 67 -2 67 C-5.37915086 44.5226126 -4.75553385 22.2540516 0 0 Z " fill="#D39DA6" transform="translate(24,147)"/>
<path d="M0 0 C0 0.66 0 1.32 0 2 C-2.61160823 2.48325034 -5.22395279 2.95828627 -7.83984375 3.41796875 C-9.77764369 3.77486886 -11.71003588 4.16563987 -13.62890625 4.61328125 C-23.99519534 6.83139551 -34.50651757 5.70871625 -45 5 C-45 4.67 -45 4.34 -45 4 C-44.17910889 3.9498877 -43.35821777 3.89977539 -42.51245117 3.84814453 C-39.4126499 3.65575661 -36.31329472 3.45745092 -33.21411133 3.25537109 C-31.23481857 3.12804398 -29.25510577 3.0073005 -27.27539062 2.88671875 C-20.52496111 2.44238668 -13.98260645 1.80490848 -7.3605957 0.39794922 C-4.8659646 -0.02259569 -2.52506489 -0.06681106 0 0 Z " fill="#CF949E" transform="translate(231,339)"/>
<path d="M0 0 C0.66 0.33 1.32 0.66 2 1 C-0.625 4.875 -0.625 4.875 -4 6 C-4.474375 6.474375 -4.94875 6.94875 -5.4375 7.4375 C-7 9 -7 9 -9 9.9375 C-11.16462174 10.90214792 -11.16462174 10.90214792 -12.5625 13.125 C-13.036875 13.74375 -13.51125 14.3625 -14 15 C-14.99 15 -15.98 15 -17 15 C-17.33 15.66 -17.66 16.32 -18 17 C-19.8125 18 -19.8125 18 -22 19 C-23.33479424 19.66373681 -24.66834591 20.32998536 -26 21 C-18.88722381 11.8934911 -9.57820892 6.28969053 0 0 Z " fill="#D1919B" transform="translate(103,37)"/>
</svg>
